<?xml version="1.0" encoding="UTF-8"?>
<svg id="shirt-outline" xmlns="http://www.w3.org/2000/svg" viewBox="0 0 479.06 493.97">
  <path d="M.69,151.64S50.39,72.63,57.18,60.9s20.06-34.57,23.15-35.19S133.41,2.87,137.42.71s29.63,12.65,41.98,16.36,73.46,9.57,84.57,8.02,52.47-7.72,57.72-11.42,23.46-12.65,29.32-11.73,51.85,22.84,54.63,25.93,69.75,123.76,72.84,123.76-72.41,63.19-81.48,74.38c-8.02-5.25-14.8-8.62-16.91-11.5s2.19,260.71,7.7,278.94c-12.48,0-285.74-.23-292.07,0-2.01-2.87,2.02-39.31,3.61-90.97s5.7-181.59,2.85-186.03c-5.84,3.58-2.26,4.42-14.59,9.22-5.82-5.14-64.9-60.76-86.89-74.03Z" fill="#fff"/>
  <path d="M.69,151.64S50.39,72.63,57.18,60.9s20.06-34.57,23.15-35.19S133.41,2.87,137.42.71s29.63,12.65,41.98,16.36,73.46,9.57,84.57,8.02,52.47-7.72,57.72-11.42,23.46-12.65,29.32-11.73,51.85,22.84,54.63,25.93,69.75,123.76,72.84,123.76-72.41,63.19-81.48,74.38c-8.02-5.25-14.8-8.62-16.91-11.5s2.19,260.71,7.7,278.94c-12.48,0-285.74-.23-292.07,0-2.01-2.87,2.02-39.31,3.61-90.97s5.7-181.59,2.85-186.03c-5.84,3.58-2.26,4.42-14.59,9.22-5.82-5.14-64.9-60.76-86.89-74.03Z" fill="none" stroke="#fff" stroke-miterlimit="10"/>
</svg>